# xmcd
#
# Track frame offsets:
#	150
#	26016
#	43669
#	62245
#	86594
#	102827
#	123292
#	135211
#	155128
#	177521
#	202592
#	215388
#	238027
#	267106
#	277504
#	289166
#	305290
#	319351
#	327701
#	340295
#
# Disc length: 4787 seconds
#
# Revision: 1
# Processed by: cddbd v1.5PL3 Copyright (c) Steve Scherf et al.
# Submitted via: audiograbber 1.83.01
#
DISCID=2212b114
DTITLE=Eric Clapton - The Best
DYEAR=1900
DGENRE=
TTITLE0=Wanna Make Love To You
TTITLE1=Change The World
TTITLE2=After Midnight
TTITLE3=My Father's Eyes
TTITLE4=Lay Down Sally
TTITLE5=Tears In Heaven
TTITLE6=Too Bad
TTITLE7=Evil
TTITLE8=Let it Grow
TTITLE9=It Hurts Me Too
TTITLE10=Sleeping In The Ground
TTITLE11=Let It Rain
TTITLE12=Key To The Highway
TTITLE13=I Wish You Would
TTITLE14=Got Too Hurry
TTITLE15=All Your Love
TTITLE16=Ramblin' On My Mind
TTITLE17=Lawdy Mama
TTITLE18=Strange Brew
TTITLE19=Sunshine Of Your Love
EXTD=
EXTT0=
EXTT1=
EXTT2=
EXTT3=
EXTT4=
EXTT5=
EXTT6=
EXTT7=
EXTT8=
EXTT9=
EXTT10=
EXTT11=
EXTT12=
EXTT13=
EXTT14=
EXTT15=
EXTT16=
EXTT17=
EXTT18=
EXTT19=
PLAYORDER=
